<svg id="visual" viewBox="0 0 900 600" width="900" height="600" xmlns="http://www.w3.org/2000/svg" xmlns:xlink="http://www.w3.org/1999/xlink" version="1.1"><rect x="0" y="0" width="900" height="600" fill="#001220"></rect><defs><linearGradient id="grad1_0" x1="33.3%" y1="0%" x2="100%" y2="100%"><stop offset="20%" stop-color="#715f7c" stop-opacity="1"></stop><stop offset="80%" stop-color="#715f7c" stop-opacity="1"></stop></linearGradient></defs><defs><linearGradient id="grad1_1" x1="33.3%" y1="0%" x2="100%" y2="100%"><stop offset="20%" stop-color="#715f7c" stop-opacity="1"></stop><stop offset="80%" stop-color="#514b66" stop-opacity="1"></stop></linearGradient></defs><defs><linearGradient id="grad1_2" x1="33.3%" y1="0%" x2="100%" y2="100%"><stop offset="20%" stop-color="#34384e" stop-opacity="1"></stop><stop offset="80%" stop-color="#514b66" stop-opacity="1"></stop></linearGradient></defs><defs><linearGradient id="grad1_3" x1="33.3%" y1="0%" x2="100%" y2="100%"><stop offset="20%" stop-color="#34384e" stop-opacity="1"></stop><stop offset="80%" stop-color="#1a2537" stop-opacity="1"></stop></linearGradient></defs><defs><linearGradient id="grad1_4" x1="33.3%" y1="0%" x2="100%" y2="100%"><stop offset="20%" stop-color="#001220" stop-opacity="1"></stop><stop offset="80%" stop-color="#1a2537" stop-opacity="1"></stop></linearGradient></defs><defs><linearGradient id="grad2_0" x1="0%" y1="0%" x2="66.7%" y2="100%"><stop offset="20%" stop-color="#715f7c" stop-opacity="1"></stop><stop offset="80%" stop-color="#715f7c" stop-opacity="1"></stop></linearGradient></defs><defs><linearGradient id="grad2_1" x1="0%" y1="0%" x2="66.7%" y2="100%"><stop offset="20%" stop-color="#514b66" stop-opacity="1"></stop><stop offset="80%" stop-color="#715f7c" stop-opacity="1"></stop></linearGradient></defs><defs><linearGradient id="grad2_2" x1="0%" y1="0%" x2="66.7%" y2="100%"><stop offset="20%" stop-color="#514b66" stop-opacity="1"></stop><stop offset="80%" stop-color="#34384e" stop-opacity="1"></stop></linearGradient></defs><defs><linearGradient id="grad2_3" x1="0%" y1="0%" x2="66.7%" y2="100%"><stop offset="20%" stop-color="#1a2537" stop-opacity="1"></stop><stop offset="80%" stop-color="#34384e" stop-opacity="1"></stop></linearGradient></defs><defs><linearGradient id="grad2_4" x1="0%" y1="0%" x2="66.7%" y2="100%"><stop offset="20%" stop-color="#1a2537" stop-opacity="1"></stop><stop offset="80%" stop-color="#001220" stop-opacity="1"></stop></linearGradient></defs><g transform="translate(900, 0)"><path d="M0 486.7C-63.9 476.1 -127.7 465.5 -181.8 438.8C-235.8 412.2 -280 369.5 -326.7 326.7C-373.4 283.8 -422.6 240.8 -449.7 186.3C-476.8 131.8 -481.8 65.9 -486.7 0L0 0Z" fill="#0e1c2b"></path><path d="M0 389.4C-51.1 380.9 -102.2 372.4 -145.4 351.1C-188.6 329.8 -224 295.6 -261.3 261.3C-298.7 227.1 -338.1 192.6 -359.8 149C-381.4 105.4 -385.4 52.7 -389.4 0L0 0Z" fill="#272e43"></path><path d="M0 292C-38.3 285.7 -76.6 279.3 -109.1 263.3C-141.5 247.3 -168 221.7 -196 196C-224 170.3 -253.6 144.5 -269.8 111.8C-286.1 79.1 -289.1 39.5 -292 0L0 0Z" fill="#43415a"></path><path d="M0 194.7C-25.5 190.4 -51.1 186.2 -72.7 175.5C-94.3 164.9 -112 147.8 -130.7 130.7C-149.4 113.5 -169 96.3 -179.9 74.5C-190.7 52.7 -192.7 26.4 -194.7 0L0 0Z" fill="#615571"></path><path d="M0 97.3C-12.8 95.2 -25.5 93.1 -36.4 87.8C-47.2 82.4 -56 73.9 -65.3 65.3C-74.7 56.8 -84.5 48.2 -89.9 37.3C-95.4 26.4 -96.4 13.2 -97.3 0L0 0Z" fill="#715f7c"></path></g><g transform="translate(0, 600)"><path d="M0 -486.7C63 -480.1 126 -473.5 186.3 -449.7C246.5 -425.9 304 -385.1 332.3 -332.3C360.7 -279.6 359.8 -215 380.6 -157.7C401.5 -100.3 444.1 -50.1 486.7 0L0 0Z" fill="#0e1c2b"></path><path d="M0 -389.4C50.4 -384.1 100.8 -378.8 149 -359.8C197.2 -340.8 243.2 -308.1 265.9 -265.9C288.5 -223.7 287.8 -172 304.5 -126.1C321.2 -80.2 355.3 -40.1 389.4 0L0 0Z" fill="#272e43"></path><path d="M0 -292C37.8 -288.1 75.6 -284.1 111.8 -269.8C147.9 -255.6 182.4 -231 199.4 -199.4C216.4 -167.8 215.9 -129 228.4 -94.6C240.9 -60.2 266.5 -30.1 292 0L0 0Z" fill="#43415a"></path><path d="M0 -194.7C25.2 -192 50.4 -189.4 74.5 -179.9C98.6 -170.4 121.6 -154 132.9 -132.9C144.3 -111.8 143.9 -86 152.3 -63.1C160.6 -40.1 177.7 -20.1 194.7 0L0 0Z" fill="#615571"></path><path d="M0 -97.3C12.6 -96 25.2 -94.7 37.3 -89.9C49.3 -85.2 60.8 -77 66.5 -66.5C72.1 -55.9 72 -43 76.1 -31.5C80.3 -20.1 88.8 -10 97.3 0L0 0Z" fill="#715f7c"></path></g></svg>